HIERARCHY
ROOT Hips
{
	OFFSET 0.00000 0.00000 0.00000
	CHANNELS 6 Xposition Yposition Zposition Zrotation Yrotation Xrotation 
	JOINT LHipJoint
	{
		OFFSET 0 0 0
		CHANNELS 3 Zrotation Yrotation Xrotation
		JOINT LeftUpLeg
		{
			OFFSET 1.24777 -1.64261 0.71711
			CHANNELS 3 Zrotation Yrotation Xrotation
			JOINT LeftLeg
			{
				OFFSET 2.49329 -6.85026 0.00000
				CHANNELS 3 Zrotation Yrotation Xrotation
				JOINT LeftFoot
				{
					OFFSET 2.36770 -6.50520 0.00000
					CHANNELS 3 Zrotation Yrotation Xrotation
					JOINT LeftToeBase
					{
						OFFSET 0.14820 -0.40718 2.21395
						CHANNELS 3 Zrotation Yrotation Xrotation
						End Site
						{
							OFFSET 0.00000 -0.00000 1.13491
						}
					}
				}
			}
		}
	}
	JOINT RHipJoint
	{
		OFFSET 0 0 0
		CHANNELS 3 Zrotation Yrotation Xrotation
		JOINT RightUpLeg
		{
			OFFSET -1.18320 -1.64261 0.71711
			CHANNELS 3 Zrotation Yrotation Xrotation
			JOINT RightLeg
			{
				OFFSET -2.46559 -6.77417 0.00000
				CHANNELS 3 Zrotation Yrotation Xrotation
				JOINT RightFoot
				{
					OFFSET -2.38450 -6.55136 0.00000
					CHANNELS 3 Zrotation Yrotation Xrotation
					JOINT RightToeBase
					{
						OFFSET -0.17454 -0.47954 2.02925
						CHANNELS 3 Zrotation Yrotation Xrotation
						End Site
						{
							OFFSET -0.00000 -0.00000 1.05076
						}
					}
				}
			}
		}
	}
	JOINT LowerBack
	{
		OFFSET 0 0 0
		CHANNELS 3 Zrotation Yrotation Xrotation
		JOINT Spine
		{
			OFFSET -0.02305 1.98660 0.00319
			CHANNELS 3 Zrotation Yrotation Xrotation
			JOINT Spine1
			{
				OFFSET -0.00718 1.99033 -0.00533
				CHANNELS 3 Zrotation Yrotation Xrotation
				JOINT Neck
				{
					OFFSET 0 0 0
					CHANNELS 3 Zrotation Yrotation Xrotation
					JOINT Neck1
					{
						OFFSET 0.00095 1.61015 0.10698
						CHANNELS 3 Zrotation Yrotation Xrotation
						JOINT Head
						{
							OFFSET -0.01060 1.59924 0.01317
							CHANNELS 3 Zrotation Yrotation Xrotation
							End Site
							{
								OFFSET -0.00458 1.63304 -0.00592
							}
						}
					}
				}
				JOINT LeftShoulder
				{
					OFFSET 0 0 0
					CHANNELS 3 Zrotation Yrotation Xrotation
					JOINT LeftArm
					{
						OFFSET 3.05381 1.47088 -0.01697
						CHANNELS 3 Zrotation Yrotation Xrotation
						JOINT LeftForeArm
						{
							OFFSET 4.25106 -0.00000 0.00000
							CHANNELS 3 Zrotation Yrotation Xrotation
							JOINT LeftHand
							{
								OFFSET 3.27592 -0.00000 0.00000
								CHANNELS 3 Zrotation Yrotation Xrotation
								JOINT LeftFingerBase
								{
									OFFSET 0 0 0
									CHANNELS 3 Zrotation Yrotation Xrotation
									JOINT LeftHandIndex1
									{
										OFFSET 0.65781 -0.00000 0.00000
										CHANNELS 3 Zrotation Yrotation Xrotation
										End Site
										{
											OFFSET 0.53034 -0.00000 0.00000
										}
									}
								}
								JOINT LThumb
								{
									OFFSET 0 0 0
									CHANNELS 3 Zrotation Yrotation Xrotation
									End Site
									{
										OFFSET 0.53844 -0.00000 0.53844
									}
								}
							}
						}
					}
				}
				JOINT RightShoulder
				{
					OFFSET 0 0 0
					CHANNELS 3 Zrotation Yrotation Xrotation
					JOINT RightArm
					{
						OFFSET -2.83695 1.31619 -0.22674
						CHANNELS 3 Zrotation Yrotation Xrotation
						JOINT RightForeArm
						{
							OFFSET -4.46073 -0.00000 0.00000
							CHANNELS 3 Zrotation Yrotation Xrotation
							JOINT RightHand
							{
								OFFSET -3.44416 -0.00000 0.00000
								CHANNELS 3 Zrotation Yrotation Xrotation
								JOINT RightFingerBase
								{
									OFFSET 0 0 0
									CHANNELS 3 Zrotation Yrotation Xrotation
									JOINT RightHandIndex1
									{
										OFFSET -0.61651 -0.00000 0.00000
										CHANNELS 3 Zrotation Yrotation Xrotation
										End Site
										{
											OFFSET -0.49705 -0.00000 0.00000
										}
									}
								}
								JOINT RThumb
								{
									OFFSET 0 0 0
									CHANNELS 3 Zrotation Yrotation Xrotation
									End Site
									{
										OFFSET -0.50464 -0.00000 0.50464
									}
								}
							}
						}
					}
				}
			}
		}
	}
}
MOTION
Frames: 5
Frame Time: .0083333
8.0787 15.6769 -27.5449 -3.0827 -4.4762 4.2593 0.0000 0.0000 0.0000 -20.7321 11.6962 -2.7224 4.2557 12.4931 37.4996 5.4592 5.9118 -46.4101 0.2899 3.4623 9.5686 0.0000 0.0000 0.0000 0.0262 11.8334 -28.6943 -7.7617 -15.9411 51.6997 -0.1062 -5.3995 -10.3576 -4.9749 13.3555 -40.7141 3.4324 5.8872 -1.3962 1.4384 7.8302 -1.5844 -0.3421 3.8913 -0.5962 6.6605 -6.8189 -7.5023 0.3309 -9.9848 9.8755 -1.6291 -4.6429 4.2812 -0.0000 -0.0000 0.0000 -86.0260 28.2062 35.5476 46.9268 -51.6782 -23.7410 -0.0000 0.0000 -24.4125 13.3079 11.7148 2.7496 -7.1250 0.0000 -0.0000 -12.3618 41.6827 1.0290 -0.0000 -0.0000 0.0000 59.4908 43.4815 15.7872 -139.1249 48.5799 -100.9071 0.0000 -0.0000 -56.7224 -20.2435 -22.2278 7.9421 7.1250 -0.0000 -0.0000 9.0169 -53.2920 -1.8509
7.9339 15.6344 -27.4682 -3.4657 -5.3006 4.1512 0.0000 0.0000 0.0000 -20.1171 11.6635 -2.3202 4.3626 12.6279 37.9910 5.5876 7.0596 -47.3527 0.2246 3.0509 8.4206 0.0000 0.0000 0.0000 1.7356 9.7221 -28.4706 -7.6442 -15.8512 51.2709 -0.1755 -6.6066 -12.9370 -4.7676 13.1172 -39.8090 3.3036 6.0748 -1.4190 1.6034 8.0780 -1.4874 -0.0930 4.0191 -0.5177 6.3504 -6.7419 -7.6636 0.3695 -9.8704 10.0366 -1.5739 -4.5890 4.3940 0.0000 -0.0000 0.0000 -86.7176 27.9601 35.1062 42.9348 -49.7157 -20.6510 -0.0000 0.0000 -23.4855 12.4170 12.6729 2.7654 -7.1250 0.0000 -0.0000 -13.3802 42.5495 0.8251 0.0000 -0.0000 0.0000 62.1837 41.9403 17.9269 -138.0215 49.1994 -100.0757 0.0000 -0.0000 -56.5507 -21.0474 -22.6846 8.4415 7.1250 -0.0000 -0.0000 8.3718 -53.9124 -1.8442
7.7897 15.5975 -27.3934 -3.9824 -6.1606 4.0511 0.0000 0.0000 0.0000 -19.3416 11.6907 -1.9761 4.4982 12.7954 38.6072 5.6834 8.1854 -48.1675 0.1602 2.5784 7.1072 0.0000 0.0000 0.0000 3.5240 7.8583 -28.2817 -7.5333 -15.7650 50.8638 -0.2601 -7.5231 -15.1789 -4.4859 12.7804 -38.5518 3.3175 6.2526 -1.3359 1.8060 8.3168 -1.3907 0.1049 4.1404 -0.4870 6.0634 -6.6257 -7.8513 0.3686 -9.6991 10.1248 -1.5310 -4.5111 4.4841 -0.0000 0.0000 0.0000 -87.3681 27.9254 34.5455 39.6164 -47.8410 -18.1544 -0.0000 0.0000 -22.4233 11.4197 13.4128 2.6827 -7.1250 0.0000 -0.0000 -14.4573 43.1777 0.6650 -0.0000 0.0000 0.0000 64.4932 40.6164 19.8475 -136.6254 49.9469 -99.0129 0.0000 -0.0000 -56.4507 -21.8809 -23.2812 9.0195 7.1250 -0.0000 -0.0000 7.7412 -54.6897 -1.8509
7.6464 15.5667 -27.3206 -4.5941 -7.0825 3.9774 0.0000 0.0000 0.0000 -18.4562 11.7807 -1.7384 4.6757 13.0090 39.4020 5.7348 9.3098 -48.8231 0.0994 2.0330 5.5969 0.0000 0.0000 0.0000 5.2828 6.3588 -28.0883 -7.4260 -15.6804 50.4677 -0.3665 -8.0363 -17.0860 -4.1745 12.3890 -37.1224 3.4397 6.4234 -1.1628 2.0248 8.5501 -1.2970 0.2498 4.2575 -0.4979 5.8413 -6.4684 -8.0523 0.3183 -9.4711 10.1287 -1.5094 -4.4085 4.5420 0.0000 0.0000 0.0000 -87.9625 28.0931 33.9062 36.8507 -46.0893 -16.1324 -0.0000 0.0000 -21.2137 10.3751 13.8864 2.5160 -7.1250 0.0000 -0.0000 -15.5146 43.5310 0.5772 0.0000 0.0000 0.0000 66.4719 39.5656 21.5776 -134.9412 50.7973 -97.7157 0.0000 -0.0000 -56.4647 -22.7708 -24.0026 9.6898 7.1250 -0.0000 -0.0000 7.0911 -55.6166 -1.8543
7.5043 15.5430 -27.2503 -5.2925 -8.0328 3.9503 0.0000 0.0000 0.0000 -17.4666 11.8835 -1.6630 4.9156 13.2881 40.4567 5.7266 10.4258 -49.2666 0.0481 1.4155 3.8928 0.0000 0.0000 0.0000 6.9702 5.2434 -27.8696 -7.3224 -15.5975 50.0833 -0.4905 -8.1484 -18.6359 -3.9053 12.0333 -35.8498 3.6625 6.5799 -0.9151 2.2492 8.7689 -1.2170 0.3356 4.3658 -0.5515 5.7017 -6.2783 -8.2279 0.2329 -9.1985 10.0374 -1.5059 -4.2863 4.5552 -0.0000 -0.0000 0.0000 -88.4774 28.4428 33.2871 34.4957 -44.4487 -14.4591 -0.0000 0.0000 -19.9135 9.3717 13.8685 2.2654 -7.1250 0.0000 -0.0000 -16.3912 43.4068 0.6635 -0.0000 -0.0000 0.0000 68.1614 38.7967 23.1275 -133.0239 51.7006 -96.2203 0.0000 -0.0000 -56.6545 -23.7796 -24.8309 10.4833 7.1250 -0.0000 -0.0000 6.3464 -56.6905 -1.8237
